<svg viewBox="0 0 40 40" xmlns="http://www.w3.org/2000/svg" xmlns:xlink="http://www.w3.org/1999/xlink" width="40.000000" height="40.000000" fill="none">
	<rect id="Github" width="40.000000" height="40.000000" x="0.000000" y="0.000000" fill="rgb(255,255,255)" fill-opacity="0" />
	<path id="Icon" d="M15 31.6667C6.66671 34.1667 6.66671 27.5 3.33337 26.6667M26.6667 36.6667L26.6667 30.2167C26.7292 29.4219 26.6219 28.623 26.3517 27.873C26.0816 27.123 25.6549 26.439 25.1 25.8667C30.3334 25.2833 35.8334 23.3 35.8334 14.2C35.8329 11.873 34.9379 9.63533 33.3334 7.95C34.0931 5.91418 34.0394 3.66391 33.1834 1.66666C33.1834 1.66666 31.2167 1.08333 26.6667 4.13333C22.8467 3.09803 18.82 3.09803 15 4.13333C10.45 1.08333 8.48337 1.66666 8.48337 1.66666C7.62733 3.66391 7.57361 5.91418 8.33337 7.95C6.71692 9.64783 5.82091 11.9058 5.83337 14.25C5.83337 23.2833 11.3334 25.2667 16.5667 25.9167C16.0184 26.4833 15.5955 27.159 15.3256 27.8999C15.0556 28.6407 14.9447 29.4301 15 30.2167L15 36.6667" fill-rule="nonzero" stroke="rgb(30,30,30)" stroke-linecap="round" stroke-linejoin="round" stroke-width="3.5" />
</svg>
