<svg viewBox="0 0 40 40" xmlns="http://www.w3.org/2000/svg" xmlns:xlink="http://www.w3.org/1999/xlink" width="40.000000" height="40.000000" fill="none">
	<rect id="Linkedin" width="40.000000" height="40.000000" x="0.000000" y="0.000000" fill="rgb(255,255,255)" fill-opacity="0" />
	<path id="Icon" d="M33.7378 16.2623C35.6131 18.1377 36.6667 20.6812 36.6667 23.3334L36.6667 35L30 35L30 23.3334C30 22.4493 29.6488 21.6015 29.0237 20.9764C28.3986 20.3512 27.5508 20 26.6667 20C25.7827 20 24.9348 20.3512 24.3097 20.9764C23.6846 21.6015 23.3334 22.4493 23.3334 23.3334L23.3334 35L16.6667 35L16.6667 23.3334C16.6667 20.6812 17.7203 18.1377 19.5956 16.2623C21.471 14.3869 24.0145 13.3334 26.6667 13.3334C29.3189 13.3334 31.8624 14.3869 33.7378 16.2623ZM10 15L10 35L3.33337 35L3.33337 15L10 15ZM6.66671 10C4.82576 10 3.33337 8.50766 3.33337 6.66671C3.33337 4.82576 4.82576 3.33337 6.66671 3.33337C8.50766 3.33337 10 4.82576 10 6.66671C10 8.50766 8.50766 10 6.66671 10Z" fill-rule="evenodd" stroke="rgb(30,30,30)" stroke-linecap="round" stroke-linejoin="round" stroke-width="3.5" />
</svg>
